<mxfile host="Electron" agent="Mozilla/5.0 (Windows NT 10.0; Win64; x64) AppleWebKit/537.36 (KHTML, like Gecko) draw.io/25.0.2 Chrome/128.0.6613.186 Electron/32.2.5 Safari/537.36" version="25.0.2">
  <diagram name="Page-1" id="Tcy61353ht7fMVRLZO-W">
    <mxGraphModel dx="1793" dy="1055" grid="1" gridSize="10" guides="1" tooltips="1" connect="1" arrows="1" fold="1" page="1" pageScale="1" pageWidth="850" pageHeight="1100" math="0" shadow="0">
      <root>
        <mxCell id="0" />
        <mxCell id="1" parent="0" />
        <mxCell id="yp2cck39GkBOPzyPTyoY-8" value="" style="edgeStyle=orthogonalEdgeStyle;rounded=0;orthogonalLoop=1;jettySize=auto;html=1;endArrow=ERone;endFill=0;" edge="1" parent="1" source="yp2cck39GkBOPzyPTyoY-1" target="yp2cck39GkBOPzyPTyoY-7">
          <mxGeometry relative="1" as="geometry">
            <Array as="points">
              <mxPoint x="190" y="290" />
              <mxPoint x="270" y="290" />
            </Array>
          </mxGeometry>
        </mxCell>
        <mxCell id="yp2cck39GkBOPzyPTyoY-17" style="edgeStyle=orthogonalEdgeStyle;rounded=0;orthogonalLoop=1;jettySize=auto;html=1;exitX=0.5;exitY=1;exitDx=0;exitDy=0;entryX=0.5;entryY=0;entryDx=0;entryDy=0;endArrow=ERmany;endFill=0;" edge="1" parent="1" source="yp2cck39GkBOPzyPTyoY-1" target="yp2cck39GkBOPzyPTyoY-10">
          <mxGeometry relative="1" as="geometry" />
        </mxCell>
        <mxCell id="yp2cck39GkBOPzyPTyoY-1" value="Module" style="rounded=0;whiteSpace=wrap;html=1;" vertex="1" parent="1">
          <mxGeometry x="130" y="200" width="120" height="60" as="geometry" />
        </mxCell>
        <mxCell id="yp2cck39GkBOPzyPTyoY-13" style="edgeStyle=orthogonalEdgeStyle;rounded=0;orthogonalLoop=1;jettySize=auto;html=1;exitX=0.5;exitY=1;exitDx=0;exitDy=0;entryX=0.5;entryY=0;entryDx=0;entryDy=0;endArrow=ERoneToMany;endFill=0;" edge="1" parent="1" source="yp2cck39GkBOPzyPTyoY-2" target="yp2cck39GkBOPzyPTyoY-5">
          <mxGeometry relative="1" as="geometry" />
        </mxCell>
        <mxCell id="yp2cck39GkBOPzyPTyoY-15" style="edgeStyle=orthogonalEdgeStyle;rounded=0;orthogonalLoop=1;jettySize=auto;html=1;exitX=0.5;exitY=1;exitDx=0;exitDy=0;entryX=0.5;entryY=0;entryDx=0;entryDy=0;endArrow=ERone;endFill=0;" edge="1" parent="1" source="yp2cck39GkBOPzyPTyoY-2" target="yp2cck39GkBOPzyPTyoY-14">
          <mxGeometry relative="1" as="geometry" />
        </mxCell>
        <mxCell id="yp2cck39GkBOPzyPTyoY-16" style="edgeStyle=orthogonalEdgeStyle;rounded=0;orthogonalLoop=1;jettySize=auto;html=1;exitX=0.5;exitY=1;exitDx=0;exitDy=0;endArrow=ERmany;endFill=0;" edge="1" parent="1" source="yp2cck39GkBOPzyPTyoY-2" target="yp2cck39GkBOPzyPTyoY-1">
          <mxGeometry relative="1" as="geometry" />
        </mxCell>
        <mxCell id="yp2cck39GkBOPzyPTyoY-2" value="JIT" style="rounded=0;whiteSpace=wrap;html=1;" vertex="1" parent="1">
          <mxGeometry x="450" y="80" width="120" height="60" as="geometry" />
        </mxCell>
        <mxCell id="yp2cck39GkBOPzyPTyoY-3" value="IR Translator" style="rounded=0;whiteSpace=wrap;html=1;" vertex="1" parent="1">
          <mxGeometry x="840" y="320" width="120" height="60" as="geometry" />
        </mxCell>
        <mxCell id="yp2cck39GkBOPzyPTyoY-26" style="edgeStyle=orthogonalEdgeStyle;rounded=0;orthogonalLoop=1;jettySize=auto;html=1;exitX=0.5;exitY=1;exitDx=0;exitDy=0;entryX=0.5;entryY=0;entryDx=0;entryDy=0;endArrow=ERone;endFill=0;" edge="1" parent="1" source="yp2cck39GkBOPzyPTyoY-5" target="yp2cck39GkBOPzyPTyoY-24">
          <mxGeometry relative="1" as="geometry" />
        </mxCell>
        <mxCell id="yp2cck39GkBOPzyPTyoY-28" style="edgeStyle=orthogonalEdgeStyle;rounded=0;orthogonalLoop=1;jettySize=auto;html=1;exitX=0.5;exitY=1;exitDx=0;exitDy=0;entryX=0.5;entryY=0;entryDx=0;entryDy=0;endArrow=ERoneToMany;endFill=0;" edge="1" parent="1" source="yp2cck39GkBOPzyPTyoY-5" target="yp2cck39GkBOPzyPTyoY-27">
          <mxGeometry relative="1" as="geometry" />
        </mxCell>
        <mxCell id="yp2cck39GkBOPzyPTyoY-34" value="" style="edgeStyle=orthogonalEdgeStyle;rounded=0;orthogonalLoop=1;jettySize=auto;html=1;endArrow=ERoneToMany;endFill=0;entryX=0.5;entryY=0;entryDx=0;entryDy=0;" edge="1" parent="1" source="yp2cck39GkBOPzyPTyoY-5" target="yp2cck39GkBOPzyPTyoY-33">
          <mxGeometry relative="1" as="geometry">
            <mxPoint x="760" y="290" as="targetPoint" />
            <Array as="points">
              <mxPoint x="590" y="290" />
              <mxPoint x="740" y="290" />
            </Array>
          </mxGeometry>
        </mxCell>
        <mxCell id="yp2cck39GkBOPzyPTyoY-5" value="Object" style="rounded=0;whiteSpace=wrap;html=1;" vertex="1" parent="1">
          <mxGeometry x="530" y="200" width="120" height="60" as="geometry" />
        </mxCell>
        <mxCell id="yp2cck39GkBOPzyPTyoY-30" value="" style="edgeStyle=orthogonalEdgeStyle;rounded=0;orthogonalLoop=1;jettySize=auto;html=1;endArrow=ERoneToMany;endFill=0;entryX=0.5;entryY=1;entryDx=0;entryDy=0;" edge="1" parent="1" source="yp2cck39GkBOPzyPTyoY-6" target="yp2cck39GkBOPzyPTyoY-27">
          <mxGeometry relative="1" as="geometry">
            <mxPoint x="430" y="459.9999999999999" as="targetPoint" />
            <Array as="points">
              <mxPoint x="590" y="580" />
              <mxPoint x="430" y="580" />
            </Array>
          </mxGeometry>
        </mxCell>
        <mxCell id="yp2cck39GkBOPzyPTyoY-32" value="" style="edgeStyle=orthogonalEdgeStyle;rounded=0;orthogonalLoop=1;jettySize=auto;html=1;endArrow=ERone;endFill=0;" edge="1" parent="1" source="yp2cck39GkBOPzyPTyoY-6" target="yp2cck39GkBOPzyPTyoY-31">
          <mxGeometry relative="1" as="geometry" />
        </mxCell>
        <mxCell id="yp2cck39GkBOPzyPTyoY-6" value="Assembly" style="rounded=0;whiteSpace=wrap;html=1;" vertex="1" parent="1">
          <mxGeometry x="535" y="600" width="120" height="60" as="geometry" />
        </mxCell>
        <mxCell id="yp2cck39GkBOPzyPTyoY-7" value="Builder" style="rounded=0;whiteSpace=wrap;html=1;" vertex="1" parent="1">
          <mxGeometry x="210" y="320" width="120" height="60" as="geometry" />
        </mxCell>
        <mxCell id="yp2cck39GkBOPzyPTyoY-10" value="IR Instruction" style="rounded=0;whiteSpace=wrap;html=1;" vertex="1" parent="1">
          <mxGeometry x="50" y="320" width="120" height="60" as="geometry" />
        </mxCell>
        <mxCell id="yp2cck39GkBOPzyPTyoY-25" style="edgeStyle=orthogonalEdgeStyle;rounded=0;orthogonalLoop=1;jettySize=auto;html=1;exitX=0.5;exitY=1;exitDx=0;exitDy=0;entryX=0.5;entryY=0;entryDx=0;entryDy=0;endArrow=ERone;endFill=0;" edge="1" parent="1" source="yp2cck39GkBOPzyPTyoY-14" target="yp2cck39GkBOPzyPTyoY-3">
          <mxGeometry relative="1" as="geometry" />
        </mxCell>
        <mxCell id="yp2cck39GkBOPzyPTyoY-14" value="Backend" style="rounded=0;whiteSpace=wrap;html=1;" vertex="1" parent="1">
          <mxGeometry x="840" y="200" width="120" height="60" as="geometry" />
        </mxCell>
        <mxCell id="yp2cck39GkBOPzyPTyoY-24" value="NativeMemoryHandle" style="rounded=0;whiteSpace=wrap;html=1;" vertex="1" parent="1">
          <mxGeometry x="530" y="320" width="120" height="60" as="geometry" />
        </mxCell>
        <mxCell id="yp2cck39GkBOPzyPTyoY-27" value="Symbol" style="rounded=0;whiteSpace=wrap;html=1;" vertex="1" parent="1">
          <mxGeometry x="370" y="320" width="120" height="60" as="geometry" />
        </mxCell>
        <mxCell id="yp2cck39GkBOPzyPTyoY-29" value="" style="endArrow=none;html=1;rounded=0;" edge="1" parent="1">
          <mxGeometry width="50" height="50" relative="1" as="geometry">
            <mxPoint x="5" y="570" as="sourcePoint" />
            <mxPoint x="855" y="570" as="targetPoint" />
          </mxGeometry>
        </mxCell>
        <mxCell id="yp2cck39GkBOPzyPTyoY-31" value="NativeMemoryHandle" style="rounded=0;whiteSpace=wrap;html=1;" vertex="1" parent="1">
          <mxGeometry x="535" y="690" width="120" height="60" as="geometry" />
        </mxCell>
        <mxCell id="yp2cck39GkBOPzyPTyoY-53" value="" style="edgeStyle=orthogonalEdgeStyle;rounded=0;orthogonalLoop=1;jettySize=auto;html=1;" edge="1" parent="1" source="yp2cck39GkBOPzyPTyoY-33" target="yp2cck39GkBOPzyPTyoY-52">
          <mxGeometry relative="1" as="geometry" />
        </mxCell>
        <mxCell id="yp2cck39GkBOPzyPTyoY-33" value="Stub" style="rounded=0;whiteSpace=wrap;html=1;" vertex="1" parent="1">
          <mxGeometry x="680" y="320" width="120" height="60" as="geometry" />
        </mxCell>
        <mxCell id="yp2cck39GkBOPzyPTyoY-36" value="User" style="swimlane;whiteSpace=wrap;html=1;" vertex="1" parent="1">
          <mxGeometry x="1080" y="80" width="200" height="280" as="geometry" />
        </mxCell>
        <mxCell id="yp2cck39GkBOPzyPTyoY-37" value="Module" style="rounded=0;whiteSpace=wrap;html=1;" vertex="1" parent="yp2cck39GkBOPzyPTyoY-36">
          <mxGeometry x="40" y="40" width="120" height="60" as="geometry" />
        </mxCell>
        <mxCell id="yp2cck39GkBOPzyPTyoY-50" value="Assembly" style="rounded=0;whiteSpace=wrap;html=1;" vertex="1" parent="yp2cck39GkBOPzyPTyoY-36">
          <mxGeometry x="40" y="200" width="120" height="60" as="geometry" />
        </mxCell>
        <mxCell id="yp2cck39GkBOPzyPTyoY-38" value="JIT" style="swimlane;whiteSpace=wrap;html=1;" vertex="1" parent="1">
          <mxGeometry x="1280" y="80" width="360" height="280" as="geometry" />
        </mxCell>
        <mxCell id="yp2cck39GkBOPzyPTyoY-43" value="" style="edgeStyle=orthogonalEdgeStyle;rounded=0;orthogonalLoop=1;jettySize=auto;html=1;" edge="1" parent="yp2cck39GkBOPzyPTyoY-38" source="yp2cck39GkBOPzyPTyoY-39" target="yp2cck39GkBOPzyPTyoY-42">
          <mxGeometry relative="1" as="geometry">
            <Array as="points">
              <mxPoint x="180" y="110" />
              <mxPoint x="100" y="110" />
            </Array>
          </mxGeometry>
        </mxCell>
        <mxCell id="yp2cck39GkBOPzyPTyoY-48" style="edgeStyle=orthogonalEdgeStyle;rounded=0;orthogonalLoop=1;jettySize=auto;html=1;exitX=0.5;exitY=1;exitDx=0;exitDy=0;entryX=0.5;entryY=0;entryDx=0;entryDy=0;" edge="1" parent="yp2cck39GkBOPzyPTyoY-38" source="yp2cck39GkBOPzyPTyoY-39" target="yp2cck39GkBOPzyPTyoY-46">
          <mxGeometry relative="1" as="geometry">
            <Array as="points">
              <mxPoint x="180" y="110" />
              <mxPoint x="260" y="110" />
            </Array>
          </mxGeometry>
        </mxCell>
        <mxCell id="yp2cck39GkBOPzyPTyoY-39" value="Modules" style="rounded=0;whiteSpace=wrap;html=1;" vertex="1" parent="yp2cck39GkBOPzyPTyoY-38">
          <mxGeometry x="120" y="40" width="120" height="60" as="geometry" />
        </mxCell>
        <mxCell id="yp2cck39GkBOPzyPTyoY-45" value="" style="edgeStyle=orthogonalEdgeStyle;rounded=0;orthogonalLoop=1;jettySize=auto;html=1;" edge="1" parent="yp2cck39GkBOPzyPTyoY-38" source="yp2cck39GkBOPzyPTyoY-42" target="yp2cck39GkBOPzyPTyoY-44">
          <mxGeometry relative="1" as="geometry">
            <Array as="points">
              <mxPoint x="100" y="190" />
              <mxPoint x="180" y="190" />
            </Array>
          </mxGeometry>
        </mxCell>
        <mxCell id="yp2cck39GkBOPzyPTyoY-42" value="Object" style="rounded=0;whiteSpace=wrap;html=1;" vertex="1" parent="yp2cck39GkBOPzyPTyoY-38">
          <mxGeometry x="40" y="120" width="120" height="60" as="geometry" />
        </mxCell>
        <mxCell id="yp2cck39GkBOPzyPTyoY-44" value="Assembly" style="rounded=0;whiteSpace=wrap;html=1;" vertex="1" parent="yp2cck39GkBOPzyPTyoY-38">
          <mxGeometry x="120" y="200" width="120" height="60" as="geometry" />
        </mxCell>
        <mxCell id="yp2cck39GkBOPzyPTyoY-49" style="edgeStyle=orthogonalEdgeStyle;rounded=0;orthogonalLoop=1;jettySize=auto;html=1;exitX=0.5;exitY=1;exitDx=0;exitDy=0;entryX=0.5;entryY=0;entryDx=0;entryDy=0;" edge="1" parent="yp2cck39GkBOPzyPTyoY-38" source="yp2cck39GkBOPzyPTyoY-46" target="yp2cck39GkBOPzyPTyoY-44">
          <mxGeometry relative="1" as="geometry">
            <Array as="points">
              <mxPoint x="260" y="190" />
              <mxPoint x="180" y="190" />
            </Array>
          </mxGeometry>
        </mxCell>
        <mxCell id="yp2cck39GkBOPzyPTyoY-46" value="Object" style="rounded=0;whiteSpace=wrap;html=1;" vertex="1" parent="yp2cck39GkBOPzyPTyoY-38">
          <mxGeometry x="200" y="120" width="120" height="60" as="geometry" />
        </mxCell>
        <mxCell id="yp2cck39GkBOPzyPTyoY-41" value="" style="edgeStyle=orthogonalEdgeStyle;rounded=0;orthogonalLoop=1;jettySize=auto;html=1;dashed=1;" edge="1" parent="1" source="yp2cck39GkBOPzyPTyoY-37" target="yp2cck39GkBOPzyPTyoY-39">
          <mxGeometry relative="1" as="geometry" />
        </mxCell>
        <mxCell id="yp2cck39GkBOPzyPTyoY-51" value="" style="edgeStyle=orthogonalEdgeStyle;rounded=0;orthogonalLoop=1;jettySize=auto;html=1;dashed=1;" edge="1" parent="1" source="yp2cck39GkBOPzyPTyoY-44" target="yp2cck39GkBOPzyPTyoY-50">
          <mxGeometry relative="1" as="geometry" />
        </mxCell>
        <mxCell id="yp2cck39GkBOPzyPTyoY-52" value="Stub" style="rounded=0;whiteSpace=wrap;html=1;" vertex="1" parent="1">
          <mxGeometry x="600" y="440" width="120" height="60" as="geometry" />
        </mxCell>
      </root>
    </mxGraphModel>
  </diagram>
</mxfile>
